<svg width="1440" height="572" viewBox="0 0 1440 572" fill="none" xmlns="http://www.w3.org/2000/svg">
<g opacity="0.1" clip-path="url(#clip0)">
<path d="M164.539 338.139C164.539 335.914 166.355 334.11 168.594 334.11C170.832 334.11 172.648 335.914 172.648 338.139C172.648 340.363 170.832 342.167 168.594 342.167C166.38 342.167 164.539 340.363 164.539 338.139Z" fill="url(#paint0_linear)"/>
<path d="M169.29 246.82H167.947V335.791H169.29V246.82Z" fill="url(#paint1_linear)"/>
<path d="M31.0104 133.901C31.0104 131.677 32.8263 129.873 35.065 129.873C37.3037 129.873 39.1196 131.677 39.1196 133.901C39.1196 136.125 37.3037 137.929 35.065 137.929C32.8263 137.929 31.0104 136.125 31.0104 133.901Z" fill="url(#paint2_linear)"/>
<path d="M35.7615 42.5822H34.4182V131.553H35.7615V42.5822Z" fill="url(#paint3_linear)"/>
<path d="M71.5068 154.34C71.5068 152.115 73.3227 150.311 75.5615 150.311C77.8002 150.311 79.6161 152.115 79.6161 154.34C79.6161 156.564 77.8002 158.368 75.5615 158.368C73.3476 158.393 71.5068 156.589 71.5068 154.34Z" fill="url(#paint4_linear)"/>
<path d="M76.2579 63.0455H74.9147V152.041H76.2579V63.0455Z" fill="url(#paint5_linear)"/>
<path d="M137.575 384.082C137.575 381.858 139.391 380.054 141.629 380.054C143.868 380.054 145.684 381.858 145.684 384.082C145.684 386.307 143.868 388.111 141.629 388.111C139.391 388.111 137.575 386.307 137.575 384.082Z" fill="url(#paint6_linear)"/>
<path d="M142.326 292.764H140.983V381.735H142.326V292.764Z" fill="url(#paint7_linear)"/>
<path d="M200.334 124.954C200.334 122.73 202.15 120.926 204.389 120.926C206.628 120.926 208.443 122.73 208.443 124.954C208.443 127.179 206.628 128.983 204.389 128.983C202.15 128.983 200.334 127.179 200.334 124.954Z" fill="url(#paint8_linear)"/>
<path d="M205.06 33.6603H203.717V122.631H205.06V33.6603Z" fill="url(#paint9_linear)"/>
<path d="M88.4218 121C88.4218 118.776 90.2376 116.972 92.4764 116.972C94.7151 116.972 96.531 118.776 96.531 121C96.531 123.224 94.7151 125.029 92.4764 125.029C90.2376 125.029 88.4218 123.224 88.4218 121Z" fill="url(#paint10_linear)"/>
<path d="M93.1729 74.1916H91.8297V118.677H93.1729V74.1916Z" fill="url(#paint11_linear)"/>
<path d="M241.353 344.663C241.353 342.439 243.169 340.635 245.408 340.635C247.646 340.635 249.462 342.439 249.462 344.663C249.462 346.888 247.646 348.692 245.408 348.692C243.194 348.692 241.353 346.888 241.353 344.663Z" fill="url(#paint12_linear)"/>
<path d="M246.104 297.83H244.761V342.315H246.104V297.83Z" fill="url(#paint13_linear)"/>
<path d="M8.07568 108.94C8.07568 106.715 9.89155 104.911 12.1303 104.911C14.369 104.911 16.1849 106.715 16.1849 108.94C16.1849 111.164 14.369 112.968 12.1303 112.968C9.89155 112.968 8.07568 111.164 8.07568 108.94Z" fill="url(#paint14_linear)"/>
<path d="M12.8268 62.1064H11.4836V106.592H12.8268V62.1064Z" fill="url(#paint15_linear)"/>
<path d="M139.167 47.3026C139.167 45.0783 140.983 43.2742 143.221 43.2742C145.46 43.2742 147.276 45.0783 147.276 47.3026C147.276 49.5269 145.46 51.331 143.221 51.331C141.007 51.3557 139.167 49.5269 139.167 47.3026Z" fill="url(#paint16_linear)"/>
<path d="M143.918 0.493988H142.575V44.9795H143.918V0.493988Z" fill="url(#paint17_linear)"/>
<path d="M82.7503 372.862C82.7503 370.638 84.5662 368.834 86.8049 368.834C89.0436 368.834 90.8595 370.638 90.8595 372.862C90.8595 375.086 89.0436 376.89 86.8049 376.89C84.5662 376.89 82.7503 375.086 82.7503 372.862Z" fill="url(#paint18_linear)"/>
<path d="M87.4765 281.543H86.1333V370.539H87.4765V281.543Z" fill="url(#paint19_linear)"/>
<path d="M199.439 325.633C199.439 323.409 201.254 321.605 203.493 321.605C205.732 321.605 207.548 323.409 207.548 325.633C207.548 327.858 205.732 329.662 203.493 329.662C201.254 329.687 199.439 327.882 199.439 325.633Z" fill="url(#paint20_linear)"/>
<path d="M204.165 234.339H202.822V323.335H204.165V234.339Z" fill="url(#paint21_linear)"/>
<path d="M4.021 549.815C4.021 547.591 5.83687 545.787 8.07562 545.787C10.3144 545.787 12.1302 547.591 12.1302 549.815C12.1302 552.04 10.3144 553.844 8.07562 553.844C5.83687 553.869 4.021 552.04 4.021 549.815Z" fill="url(#paint22_linear)"/>
<path d="M8.74725 240.468H7.40399V547.492H8.74725V240.468Z" fill="url(#paint23_linear)"/>
<path d="M175.957 374.024C175.957 371.8 177.773 369.995 180.011 369.995C182.25 369.995 184.066 371.8 184.066 374.024C184.066 376.248 182.25 378.052 180.011 378.052C177.773 378.052 175.957 376.248 175.957 374.024Z" fill="url(#paint24_linear)"/>
<path d="M180.683 64.6766H179.34V371.701H180.683V64.6766Z" fill="url(#paint25_linear)"/>
<path d="M66.7308 464.008C66.7308 461.784 68.5466 459.98 70.7854 459.98C73.0241 459.98 74.84 461.784 74.84 464.008C74.84 466.232 73.0241 468.036 70.7854 468.036C68.5466 468.061 66.7308 466.232 66.7308 464.008Z" fill="url(#paint26_linear)"/>
<path d="M71.4819 154.686H70.1387V461.71H71.4819V154.686Z" fill="url(#paint27_linear)"/>
<path d="M152.574 225.862C152.574 223.638 154.39 221.834 156.629 221.834C158.868 221.834 160.683 223.638 160.683 225.862C160.683 228.087 158.868 229.891 156.629 229.891C154.39 229.916 152.574 228.111 152.574 225.862Z" fill="url(#paint28_linear)"/>
<path d="M157.325 53.6788H155.982V223.539H157.325V53.6788Z" fill="url(#paint29_linear)"/>
<path d="M1303.5 380.722C1303.5 378.497 1305.31 376.693 1307.55 376.693C1309.79 376.693 1311.61 378.497 1311.61 380.722C1311.61 382.946 1309.79 384.75 1307.55 384.75C1305.31 384.775 1303.5 382.946 1303.5 380.722Z" fill="url(#paint30_linear)"/>
<path d="M1308.22 316.366H1306.88V378.423H1308.22V316.366Z" fill="url(#paint31_linear)"/>
<path d="M1198.9 290.614C1198.9 288.389 1200.71 286.585 1202.95 286.585C1205.19 286.585 1207.01 288.389 1207.01 290.614C1207.01 292.838 1205.19 294.642 1202.95 294.642C1200.71 294.642 1198.9 292.838 1198.9 290.614Z" fill="url(#paint32_linear)"/>
<path d="M1203.63 127.673H1202.28V288.291H1203.63V127.673Z" fill="url(#paint33_linear)"/>
<path d="M1152.66 151.745C1152.66 149.521 1154.47 147.717 1156.71 147.717C1158.95 147.717 1160.77 149.521 1160.77 151.745C1160.77 153.969 1158.95 155.773 1156.71 155.773C1154.5 155.798 1152.66 153.994 1152.66 151.745Z" fill="url(#paint34_linear)"/>
<path d="M1157.41 60.4508H1156.06V149.446H1157.41V60.4508Z" fill="url(#paint35_linear)"/>
<path d="M1278.2 221.884C1278.2 219.659 1280.02 217.855 1282.25 217.855C1284.49 217.855 1286.31 219.659 1286.31 221.884C1286.31 224.108 1284.49 225.912 1282.25 225.912C1280.02 225.937 1278.2 224.108 1278.2 221.884Z" fill="url(#paint36_linear)"/>
<path d="M1282.93 130.59H1281.58V219.585H1282.93V130.59Z" fill="url(#paint37_linear)"/>
<path d="M1406.55 228.902C1406.55 226.678 1408.37 224.874 1410.61 224.874C1412.85 224.874 1414.66 226.678 1414.66 228.902C1414.66 231.127 1412.85 232.931 1410.61 232.931C1408.37 232.931 1406.55 231.127 1406.55 228.902Z" fill="url(#paint38_linear)"/>
<path d="M1411.31 137.608H1409.96V226.604H1411.31V137.608Z" fill="url(#paint39_linear)"/>
<path d="M1266.29 296.273C1266.29 294.049 1268.1 292.245 1270.34 292.245C1272.58 292.245 1274.39 294.049 1274.39 296.273C1274.39 298.498 1272.58 300.302 1270.34 300.302C1268.1 300.326 1266.29 298.498 1266.29 296.273Z" fill="url(#paint40_linear)"/>
<path d="M1271.04 127.055H1269.69V293.95H1271.04V127.055Z" fill="url(#paint41_linear)"/>
<path d="M1289.89 265.677C1289.89 263.453 1291.71 261.649 1293.95 261.649C1296.18 261.649 1298 263.453 1298 265.677C1298 267.901 1296.18 269.706 1293.95 269.706C1291.71 269.706 1289.89 267.901 1289.89 265.677Z" fill="url(#paint42_linear)"/>
<path d="M1294.64 130.12H1293.3V263.354H1294.64V130.12Z" fill="url(#paint43_linear)"/>
<path d="M1232.03 442.655C1232.03 440.431 1233.85 438.627 1236.09 438.627C1238.33 438.627 1240.14 440.431 1240.14 442.655C1240.14 444.879 1238.33 446.684 1236.09 446.684C1233.87 446.684 1232.03 444.879 1232.03 442.655Z" fill="url(#paint44_linear)"/>
<path d="M1236.78 133.308H1235.44V440.332H1236.78V133.308Z" fill="url(#paint45_linear)"/>
<path d="M1350.31 309.347C1350.31 307.123 1352.13 305.319 1354.37 305.319C1356.61 305.319 1358.42 307.123 1358.42 309.347C1358.42 311.571 1356.61 313.375 1354.37 313.375C1352.13 313.375 1350.31 311.571 1350.31 309.347Z" fill="url(#paint46_linear)"/>
<path d="M1355.06 0H1353.72V307.024H1355.06V0Z" fill="url(#paint47_linear)"/>
<path d="M1411.88 326.523C1411.88 324.299 1413.69 322.495 1415.93 322.495C1418.17 322.495 1419.99 324.299 1419.99 326.523C1419.99 328.748 1418.17 330.552 1415.93 330.552C1413.69 330.552 1411.88 328.748 1411.88 326.523Z" fill="url(#paint48_linear)"/>
<path d="M1416.6 17.1764H1415.26V324.2H1416.6V17.1764Z" fill="url(#paint49_linear)"/>
<path d="M1163.43 510.248C1163.43 508.024 1165.24 506.22 1167.48 506.22C1169.72 506.22 1171.54 508.024 1171.54 510.248C1171.54 512.473 1169.72 514.277 1167.48 514.277C1165.27 514.277 1163.43 512.473 1163.43 510.248Z" fill="url(#paint50_linear)"/>
<path d="M1168.18 200.901H1166.84V507.925H1168.18V200.901Z" fill="url(#paint51_linear)"/>
<path d="M1422.92 388.63C1422.92 386.406 1424.74 384.602 1426.98 384.602C1429.22 384.602 1431.03 386.406 1431.03 388.63C1431.03 390.854 1429.22 392.659 1426.98 392.659C1424.74 392.659 1422.92 390.854 1422.92 388.63Z" fill="url(#paint52_linear)"/>
<path d="M1427.67 79.2831H1426.33V386.307H1427.67V79.2831Z" fill="url(#paint53_linear)"/>
<path d="M1110.37 428.197C1110.37 425.973 1112.18 424.169 1114.42 424.169C1116.66 424.169 1118.48 425.973 1118.48 428.197C1118.48 430.422 1116.66 432.226 1114.42 432.226C1112.18 432.251 1110.37 430.446 1110.37 428.197Z" fill="url(#paint54_linear)"/>
<path d="M1115.1 256.014H1113.75V425.874H1115.1V256.014Z" fill="url(#paint55_linear)"/>
<path d="M1180.27 243.089C1180.27 240.864 1182.08 239.06 1184.32 239.06C1186.56 239.06 1188.38 240.864 1188.38 243.089C1188.38 245.313 1186.56 247.117 1184.32 247.117C1182.08 247.142 1180.27 245.338 1180.27 243.089Z" fill="url(#paint56_linear)"/>
<path d="M1185.02 117.763H1183.68V240.79H1185.02V117.763Z" fill="url(#paint57_linear)"/>
<path d="M1401.33 460.202C1401.33 457.978 1403.15 456.174 1405.39 456.174C1407.62 456.174 1409.44 457.978 1409.44 460.202C1409.44 462.427 1407.62 464.231 1405.39 464.231C1403.15 464.231 1401.33 462.427 1401.33 460.202Z" fill="url(#paint58_linear)"/>
<path d="M1406.08 287.994H1404.74V457.855H1406.08V287.994Z" fill="url(#paint59_linear)"/>
</g>
<defs>
<linearGradient id="paint0_linear" x1="168.611" y1="315.457" x2="168.611" y2="245.437" gradientUnits="userSpaceOnUse">
<stop stop-color="#A4FFFF"/>
<stop offset="1" stop-color="#A4FFFF" stop-opacity="0"/>
</linearGradient>
<linearGradient id="paint1_linear" x1="168.614" y1="315.456" x2="168.614" y2="245.438" gradientUnits="userSpaceOnUse">
<stop stop-color="#A4FFFF"/>
<stop offset="1" stop-color="#A4FFFF" stop-opacity="0"/>
</linearGradient>
<linearGradient id="paint2_linear" x1="35.0812" y1="111.226" x2="35.0812" y2="41.2064" gradientUnits="userSpaceOnUse">
<stop stop-color="#A4FFFF"/>
<stop offset="1" stop-color="#A4FFFF" stop-opacity="0"/>
</linearGradient>
<linearGradient id="paint3_linear" x1="35.0809" y1="111.225" x2="35.0809" y2="41.2073" gradientUnits="userSpaceOnUse">
<stop stop-color="#A4FFFF"/>
<stop offset="1" stop-color="#A4FFFF" stop-opacity="0"/>
</linearGradient>
<linearGradient id="paint4_linear" x1="75.5806" y1="131.676" x2="75.5806" y2="61.6537" gradientUnits="userSpaceOnUse">
<stop stop-color="#A4FFFF"/>
<stop offset="1" stop-color="#A4FFFF" stop-opacity="0"/>
</linearGradient>
<linearGradient id="paint5_linear" x1="75.5806" y1="131.676" x2="75.5806" y2="61.6568" gradientUnits="userSpaceOnUse">
<stop stop-color="#A4FFFF"/>
<stop offset="1" stop-color="#A4FFFF" stop-opacity="0"/>
</linearGradient>
<linearGradient id="paint6_linear" x1="141.644" y1="361.411" x2="141.644" y2="291.41" gradientUnits="userSpaceOnUse">
<stop stop-color="#A4FFFF"/>
<stop offset="1" stop-color="#A4FFFF" stop-opacity="0"/>
</linearGradient>
<linearGradient id="paint7_linear" x1="141.645" y1="361.404" x2="141.645" y2="291.386" gradientUnits="userSpaceOnUse">
<stop stop-color="#A4FFFF"/>
<stop offset="1" stop-color="#A4FFFF" stop-opacity="0"/>
</linearGradient>
<linearGradient id="paint8_linear" x1="204.39" y1="102.282" x2="204.39" y2="32.2625" gradientUnits="userSpaceOnUse">
<stop stop-color="#A4FFFF"/>
<stop offset="1" stop-color="#A4FFFF" stop-opacity="0"/>
</linearGradient>
<linearGradient id="paint9_linear" x1="204.389" y1="102.281" x2="204.389" y2="32.263" gradientUnits="userSpaceOnUse">
<stop stop-color="#A4FFFF"/>
<stop offset="1" stop-color="#A4FFFF" stop-opacity="0"/>
</linearGradient>
<linearGradient id="paint10_linear" x1="92.4878" y1="98.3314" x2="92.4878" y2="28.3118" gradientUnits="userSpaceOnUse">
<stop stop-color="#A4FFFF"/>
<stop offset="1" stop-color="#A4FFFF" stop-opacity="0"/>
</linearGradient>
<linearGradient id="paint11_linear" x1="92.4891" y1="108.507" x2="92.4891" y2="73.4979" gradientUnits="userSpaceOnUse">
<stop stop-color="#A4FFFF"/>
<stop offset="1" stop-color="#A4FFFF" stop-opacity="0"/>
</linearGradient>
<linearGradient id="paint12_linear" x1="245.426" y1="321.981" x2="245.426" y2="251.961" gradientUnits="userSpaceOnUse">
<stop stop-color="#A4FFFF"/>
<stop offset="1" stop-color="#A4FFFF" stop-opacity="0"/>
</linearGradient>
<linearGradient id="paint13_linear" x1="245.426" y1="332.157" x2="245.426" y2="297.148" gradientUnits="userSpaceOnUse">
<stop stop-color="#A4FFFF"/>
<stop offset="1" stop-color="#A4FFFF" stop-opacity="0"/>
</linearGradient>
<linearGradient id="paint14_linear" x1="12.147" y1="86.2508" x2="12.147" y2="16.2096" gradientUnits="userSpaceOnUse">
<stop stop-color="#A4FFFF"/>
<stop offset="1" stop-color="#A4FFFF" stop-opacity="0"/>
</linearGradient>
<linearGradient id="paint15_linear" x1="12.147" y1="96.4351" x2="12.147" y2="61.4255" gradientUnits="userSpaceOnUse">
<stop stop-color="#A4FFFF"/>
<stop offset="1" stop-color="#A4FFFF" stop-opacity="0"/>
</linearGradient>
<linearGradient id="paint16_linear" x1="143.241" y1="24.6352" x2="143.241" y2="-45.3847" gradientUnits="userSpaceOnUse">
<stop stop-color="#A4FFFF"/>
<stop offset="1" stop-color="#A4FFFF" stop-opacity="0"/>
</linearGradient>
<linearGradient id="paint17_linear" x1="143.243" y1="34.8103" x2="143.243" y2="-0.195785" gradientUnits="userSpaceOnUse">
<stop stop-color="#A4FFFF"/>
<stop offset="1" stop-color="#A4FFFF" stop-opacity="0"/>
</linearGradient>
<linearGradient id="paint18_linear" x1="86.8156" y1="350.188" x2="86.8156" y2="280.168" gradientUnits="userSpaceOnUse">
<stop stop-color="#A4FFFF"/>
<stop offset="1" stop-color="#A4FFFF" stop-opacity="0"/>
</linearGradient>
<linearGradient id="paint19_linear" x1="86.8144" y1="350.188" x2="86.8144" y2="280.168" gradientUnits="userSpaceOnUse">
<stop stop-color="#A4FFFF"/>
<stop offset="1" stop-color="#A4FFFF" stop-opacity="0"/>
</linearGradient>
<linearGradient id="paint20_linear" x1="203.499" y1="302.964" x2="203.499" y2="232.923" gradientUnits="userSpaceOnUse">
<stop stop-color="#A4FFFF"/>
<stop offset="1" stop-color="#A4FFFF" stop-opacity="0"/>
</linearGradient>
<linearGradient id="paint21_linear" x1="203.501" y1="302.97" x2="203.501" y2="232.952" gradientUnits="userSpaceOnUse">
<stop stop-color="#A4FFFF"/>
<stop offset="1" stop-color="#A4FFFF" stop-opacity="0"/>
</linearGradient>
<linearGradient id="paint22_linear" x1="8.08407" y1="510.33" x2="8.08407" y2="385.631" gradientUnits="userSpaceOnUse">
<stop stop-color="#A4FFFF"/>
<stop offset="1" stop-color="#A4FFFF" stop-opacity="0"/>
</linearGradient>
<linearGradient id="paint23_linear" x1="8.08532" y1="479.128" x2="8.08532" y2="249.739" gradientUnits="userSpaceOnUse">
<stop stop-color="#A4FFFF"/>
<stop offset="1" stop-color="#A4FFFF" stop-opacity="0"/>
</linearGradient>
<linearGradient id="paint24_linear" x1="180.009" y1="334.534" x2="180.009" y2="209.835" gradientUnits="userSpaceOnUse">
<stop stop-color="#A4FFFF"/>
<stop offset="1" stop-color="#A4FFFF" stop-opacity="0"/>
</linearGradient>
<linearGradient id="paint25_linear" x1="180.011" y1="303.331" x2="180.011" y2="73.9432" gradientUnits="userSpaceOnUse">
<stop stop-color="#A4FFFF"/>
<stop offset="1" stop-color="#A4FFFF" stop-opacity="0"/>
</linearGradient>
<linearGradient id="paint26_linear" x1="70.7998" y1="424.523" x2="70.7998" y2="299.825" gradientUnits="userSpaceOnUse">
<stop stop-color="#A4FFFF"/>
<stop offset="1" stop-color="#A4FFFF" stop-opacity="0"/>
</linearGradient>
<linearGradient id="paint27_linear" x1="70.8011" y1="393.319" x2="70.8011" y2="163.932" gradientUnits="userSpaceOnUse">
<stop stop-color="#A4FFFF"/>
<stop offset="1" stop-color="#A4FFFF" stop-opacity="0"/>
</linearGradient>
<linearGradient id="paint28_linear" x1="156.64" y1="186.369" x2="156.64" y2="61.6321" gradientUnits="userSpaceOnUse">
<stop stop-color="#A4FFFF"/>
<stop offset="1" stop-color="#A4FFFF" stop-opacity="0"/>
</linearGradient>
<linearGradient id="paint29_linear" x1="156.64" y1="185.724" x2="156.64" y2="58.8085" gradientUnits="userSpaceOnUse">
<stop stop-color="#A4FFFF"/>
<stop offset="1" stop-color="#A4FFFF" stop-opacity="0"/>
</linearGradient>
<linearGradient id="paint30_linear" x1="1307.55" y1="358.066" x2="1307.55" y2="288.068" gradientUnits="userSpaceOnUse">
<stop stop-color="#A4FFFF"/>
<stop offset="1" stop-color="#A4FFFF" stop-opacity="0"/>
</linearGradient>
<linearGradient id="paint31_linear" x1="1307.55" y1="364.218" x2="1307.55" y2="315.388" gradientUnits="userSpaceOnUse">
<stop stop-color="#A4FFFF"/>
<stop offset="1" stop-color="#A4FFFF" stop-opacity="0"/>
</linearGradient>
<linearGradient id="paint32_linear" x1="1202.95" y1="267.943" x2="1202.95" y2="197.924" gradientUnits="userSpaceOnUse">
<stop stop-color="#A4FFFF"/>
<stop offset="1" stop-color="#A4FFFF" stop-opacity="0"/>
</linearGradient>
<linearGradient id="paint33_linear" x1="1202.95" y1="251.561" x2="1202.95" y2="125.179" gradientUnits="userSpaceOnUse">
<stop stop-color="#A4FFFF"/>
<stop offset="1" stop-color="#A4FFFF" stop-opacity="0"/>
</linearGradient>
<linearGradient id="paint34_linear" x1="1156.73" y1="129.083" x2="1156.73" y2="59.0629" gradientUnits="userSpaceOnUse">
<stop stop-color="#A4FFFF"/>
<stop offset="1" stop-color="#A4FFFF" stop-opacity="0"/>
</linearGradient>
<linearGradient id="paint35_linear" x1="1156.73" y1="129.083" x2="1156.73" y2="59.0636" gradientUnits="userSpaceOnUse">
<stop stop-color="#A4FFFF"/>
<stop offset="1" stop-color="#A4FFFF" stop-opacity="0"/>
</linearGradient>
<linearGradient id="paint36_linear" x1="1282.25" y1="199.207" x2="1282.25" y2="129.166" gradientUnits="userSpaceOnUse">
<stop stop-color="#A4FFFF"/>
<stop offset="1" stop-color="#A4FFFF" stop-opacity="0"/>
</linearGradient>
<linearGradient id="paint37_linear" x1="1282.25" y1="199.213" x2="1282.25" y2="129.194" gradientUnits="userSpaceOnUse">
<stop stop-color="#A4FFFF"/>
<stop offset="1" stop-color="#A4FFFF" stop-opacity="0"/>
</linearGradient>
<linearGradient id="paint38_linear" x1="1410.62" y1="206.234" x2="1410.62" y2="136.214" gradientUnits="userSpaceOnUse">
<stop stop-color="#A4FFFF"/>
<stop offset="1" stop-color="#A4FFFF" stop-opacity="0"/>
</linearGradient>
<linearGradient id="paint39_linear" x1="1410.62" y1="206.234" x2="1410.62" y2="136.215" gradientUnits="userSpaceOnUse">
<stop stop-color="#A4FFFF"/>
<stop offset="1" stop-color="#A4FFFF" stop-opacity="0"/>
</linearGradient>
<linearGradient id="paint40_linear" x1="1270.35" y1="256.788" x2="1270.35" y2="132.089" gradientUnits="userSpaceOnUse">
<stop stop-color="#A4FFFF"/>
<stop offset="1" stop-color="#A4FFFF" stop-opacity="0"/>
</linearGradient>
<linearGradient id="paint41_linear" x1="1270.36" y1="256.79" x2="1270.36" y2="132.092" gradientUnits="userSpaceOnUse">
<stop stop-color="#A4FFFF"/>
<stop offset="1" stop-color="#A4FFFF" stop-opacity="0"/>
</linearGradient>
<linearGradient id="paint42_linear" x1="1293.96" y1="226.18" x2="1293.96" y2="101.481" gradientUnits="userSpaceOnUse">
<stop stop-color="#A4FFFF"/>
<stop offset="1" stop-color="#A4FFFF" stop-opacity="0"/>
</linearGradient>
<linearGradient id="paint43_linear" x1="1293.96" y1="233.675" x2="1293.96" y2="134.127" gradientUnits="userSpaceOnUse">
<stop stop-color="#A4FFFF"/>
<stop offset="1" stop-color="#A4FFFF" stop-opacity="0"/>
</linearGradient>
<linearGradient id="paint44_linear" x1="1236.11" y1="403.166" x2="1236.11" y2="278.467" gradientUnits="userSpaceOnUse">
<stop stop-color="#A4FFFF"/>
<stop offset="1" stop-color="#A4FFFF" stop-opacity="0"/>
</linearGradient>
<linearGradient id="paint45_linear" x1="1236.11" y1="371.961" x2="1236.11" y2="142.573" gradientUnits="userSpaceOnUse">
<stop stop-color="#A4FFFF"/>
<stop offset="1" stop-color="#A4FFFF" stop-opacity="0"/>
</linearGradient>
<linearGradient id="paint46_linear" x1="1354.38" y1="269.841" x2="1354.38" y2="145.104" gradientUnits="userSpaceOnUse">
<stop stop-color="#A4FFFF"/>
<stop offset="1" stop-color="#A4FFFF" stop-opacity="0"/>
</linearGradient>
<linearGradient id="paint47_linear" x1="1354.38" y1="238.647" x2="1354.38" y2="9.25916" gradientUnits="userSpaceOnUse">
<stop stop-color="#A4FFFF"/>
<stop offset="1" stop-color="#A4FFFF" stop-opacity="0"/>
</linearGradient>
<linearGradient id="paint48_linear" x1="1415.94" y1="287.022" x2="1415.94" y2="162.289" gradientUnits="userSpaceOnUse">
<stop stop-color="#A4FFFF"/>
<stop offset="1" stop-color="#A4FFFF" stop-opacity="0"/>
</linearGradient>
<linearGradient id="paint49_linear" x1="1415.94" y1="255.831" x2="1415.94" y2="26.441" gradientUnits="userSpaceOnUse">
<stop stop-color="#A4FFFF"/>
<stop offset="1" stop-color="#A4FFFF" stop-opacity="0"/>
</linearGradient>
<linearGradient id="paint50_linear" x1="1167.5" y1="470.758" x2="1167.5" y2="346.06" gradientUnits="userSpaceOnUse">
<stop stop-color="#A4FFFF"/>
<stop offset="1" stop-color="#A4FFFF" stop-opacity="0"/>
</linearGradient>
<linearGradient id="paint51_linear" x1="1167.5" y1="439.554" x2="1167.5" y2="210.168" gradientUnits="userSpaceOnUse">
<stop stop-color="#A4FFFF"/>
<stop offset="1" stop-color="#A4FFFF" stop-opacity="0"/>
</linearGradient>
<linearGradient id="paint52_linear" x1="1426.99" y1="349.146" x2="1426.99" y2="224.485" gradientUnits="userSpaceOnUse">
<stop stop-color="#A4FFFF"/>
<stop offset="1" stop-color="#A4FFFF" stop-opacity="0"/>
</linearGradient>
<linearGradient id="paint53_linear" x1="1426.99" y1="317.93" x2="1426.99" y2="88.5425" gradientUnits="userSpaceOnUse">
<stop stop-color="#A4FFFF"/>
<stop offset="1" stop-color="#A4FFFF" stop-opacity="0"/>
</linearGradient>
<linearGradient id="paint54_linear" x1="1114.43" y1="388.719" x2="1114.43" y2="264.021" gradientUnits="userSpaceOnUse">
<stop stop-color="#A4FFFF"/>
<stop offset="1" stop-color="#A4FFFF" stop-opacity="0"/>
</linearGradient>
<linearGradient id="paint55_linear" x1="1114.43" y1="388.058" x2="1114.43" y2="261.146" gradientUnits="userSpaceOnUse">
<stop stop-color="#A4FFFF"/>
<stop offset="1" stop-color="#A4FFFF" stop-opacity="0"/>
</linearGradient>
<linearGradient id="paint56_linear" x1="1184.34" y1="203.61" x2="1184.34" y2="78.9114" gradientUnits="userSpaceOnUse">
<stop stop-color="#A4FFFF"/>
<stop offset="1" stop-color="#A4FFFF" stop-opacity="0"/>
</linearGradient>
<linearGradient id="paint57_linear" x1="1184.34" y1="213.385" x2="1184.34" y2="121.474" gradientUnits="userSpaceOnUse">
<stop stop-color="#A4FFFF"/>
<stop offset="1" stop-color="#A4FFFF" stop-opacity="0"/>
</linearGradient>
<linearGradient id="paint58_linear" x1="1405.4" y1="420.716" x2="1405.4" y2="296.056" gradientUnits="userSpaceOnUse">
<stop stop-color="#A4FFFF"/>
<stop offset="1" stop-color="#A4FFFF" stop-opacity="0"/>
</linearGradient>
<linearGradient id="paint59_linear" x1="1405.4" y1="420.044" x2="1405.4" y2="293.129" gradientUnits="userSpaceOnUse">
<stop stop-color="#A4FFFF"/>
<stop offset="1" stop-color="#A4FFFF" stop-opacity="0"/>
</linearGradient>
<clipPath id="clip0">
<rect width="1547" height="572" fill="white" transform="translate(-46)"/>
</clipPath>
</defs>
</svg>
