<svg width="38" height="36" viewBox="0 0 38 36" fill="none" xmlns="http://www.w3.org/2000/svg">
<path opacity="0.3" fill-rule="evenodd" clip-rule="evenodd" d="M31.0239 21V3C26.0123 3 21.9496 7.06268 21.9496 12.0742V18.2573L12.6159 8.99997C10.2534 11.3431 10.2534 15.1421 12.6159 17.4853L20.4038 25.2095L24.6481 21H31.0239Z" fill="#99EFD0"/>
<path fill-rule="evenodd" clip-rule="evenodd" d="M7.28874 18C4.52732 18 2.28874 20.2386 2.28874 23V26.5C2.28874 29.2614 4.52732 31.5 7.28874 31.5H30.561C33.3224 31.5 35.561 29.2614 35.561 26.5V23C35.561 20.2386 33.3224 18 30.561 18H7.28874ZM32.5362 24.75C32.5362 25.9926 31.5206 27 30.2677 27C29.0148 27 27.9991 25.9926 27.9991 24.75C27.9991 23.5074 29.0148 22.5 30.2677 22.5C31.5206 22.5 32.5362 23.5074 32.5362 24.75Z" fill="#99EFD0"/>
</svg>
