<svg width="37" height="36" viewBox="0 0 37 36" fill="none" xmlns="http://www.w3.org/2000/svg">
<path opacity="0.3" fill-rule="evenodd" clip-rule="evenodd" d="M11.1015 28.3938L9.16973 30.7023C5.38583 27.5875 3.15216 22.9731 3.15216 18C3.15216 13.0339 5.37961 8.42518 9.15455 5.3103L11.0891 7.61653C7.99771 10.1673 6.17691 13.9346 6.17691 18C6.17691 22.0711 8.00279 25.843 11.1015 28.3938ZM25.4503 28.3938L27.3821 30.7023C31.166 27.5875 33.3996 22.9731 33.3996 18C33.3996 13.0339 31.1722 8.42518 27.3973 5.3103L25.4628 7.61653C28.5541 10.1673 30.3749 13.9346 30.3749 18C30.3749 22.0711 28.549 25.843 25.4503 28.3938ZM21.5706 23.7899L23.4949 26.1045C25.9177 24.123 27.3501 21.1761 27.3501 18C27.3501 14.8344 25.9271 11.8961 23.518 9.91448L21.5871 12.2237C23.3105 13.6413 24.3254 15.7369 24.3254 18C24.3254 20.2707 23.3038 22.3724 21.5706 23.7899ZM13.0569 26.1045L14.9812 23.7899C13.248 22.3724 12.2264 20.2707 12.2264 18C12.2264 15.7369 13.2413 13.6413 14.9647 12.2237L13.0338 9.91448C10.6247 11.8961 9.20166 14.8344 9.20166 18C9.20166 21.1761 10.6341 24.123 13.0569 26.1045Z" fill="#99EFD0"/>
<path fill-rule="evenodd" clip-rule="evenodd" d="M18.2759 21C19.9464 21 21.3007 19.6569 21.3007 18C21.3007 16.3431 19.9464 15 18.2759 15C16.6054 15 15.2512 16.3431 15.2512 18C15.2512 19.6569 16.6054 21 18.2759 21Z" fill="#99EFD0"/>
</svg>
